# xmcd
#
# Track frame offsets:
#	150
#	12581
#	25273
#	34600
#	43277
#	54110
#	66459
#	78808
#	90742
#	103187
#	111020
#	121269
#	133007
#	146164
#	158820
#	166407
#	179024
#	188180
#	199345
#	212714
#	223126
#	232745
#
# Disc length: 3261 seconds
#
# Revision: 0
# Processed by: cddbd v1.5.2PL0 Copyright (c) Steve Scherf et al.
# Submitted via: audiograbber 1.83.01
#
DISCID=400cbb16
DTITLE=Various Artist - Country Legends
DYEAR=2002
DGENRE=Country
TTITLE0=Kenny Rogers and The First Edition - Reuben James
TTITLE1=Lynn Anderson - Top Of The World
TTITLE2=Willie Nelson - One Step Beyond
TTITLE3=Waylon Jennings - Love's Gonna Live Here
TTITLE4=Dolly Parton - It Wasn't God Who Made Honky Tonk Angels
TTITLE5=Jack Greene - All The Time
TTITLE6=Johnny Paycheck - Take This Job And Shove It
TTITLE7=Billie Jo Spears - Look What They've Done To My Song
TTITLE8=Porter Wagoner - Satisfied Mind
TTITLE9=Don Gibson - Blue Blue Day
TTITLE10=Dave Dudley - Six Days On The Road
TTITLE11=Donna Fargo - The Happiest Girl In The Whole U.S.A.
TTITLE12=Mickey Gilley - That Heart Belongs To Me
TTITLE13=T.G. Sheppard - Trying To Beat The Morning Home
TTITLE14=Buck Owens - Down On The Corner Of Love
TTITLE15=Kitty Wells - Makin' Believe
TTITLE16=Frankie Laine - Rawhide
TTITLE17=Conway Twitty - Big Town
TTITLE18=David Houston - Almost Persuaded
TTITLE19=Ferlin Husky - On The Wings Of A Dove
TTITLE20=Barbara Mandrell - Release Me (Live)
TTITLE21=Freddy Fender - Before The Next Teardrop Falls (Live)
EXTD=
EXTT0=
EXTT1=
EXTT2=
EXTT3=
EXTT4=
EXTT5=
EXTT6=
EXTT7=
EXTT8=
EXTT9=
EXTT10=
EXTT11=
EXTT12=
EXTT13=
EXTT14=
EXTT15=
EXTT16=
EXTT17=
EXTT18=
EXTT19=
EXTT20=
EXTT21=
PLAYORDER=
